<svg width="95" height="78" viewBox="0 0 95 78" fill="none" xmlns="http://www.w3.org/2000/svg">
<path d="M29.4294 0L53.3429 39.9182H64.5986L40.9353 0.0592405L29.4294 0Z" fill="white"/>
<path d="M46.257 3.33789L68.1529 39.9189L79.4086 39.8761L57.7364 3.34447L46.257 3.33789Z" fill="white"/>
<path d="M0 65.3614H11.6342L38.5491 20.8224L32.9311 11.4492L0 65.3614Z" fill="white"/>
<path d="M14.8102 65.362H26.4444L46.4051 32.7238L40.1849 23.5547L14.8102 65.362Z" fill="white"/>
<path d="M94.2714 43.4976L88.5481 52.8674L37.1702 52.8214L43.1205 43.2441L94.2714 43.4976Z" fill="#AC1D26"/>
<path d="M86.59 55.8477L80.9161 65.3623H29.3801L35.2877 55.8477H86.59Z" fill="#AC1D26"/>
<path d="M2.83038 69.8251L6.77975 74.7618V71.3423C6.81671 70.9999 6.74534 70.6546 6.5757 70.3549C6.45304 70.2317 6.30395 70.1381 6.13973 70.081C5.97551 70.024 5.80046 70.0051 5.62785 70.0258V69.8086H8.26076V70.0258C8.02402 70.0405 7.792 70.0985 7.5762 70.1969C7.45228 70.2737 7.35736 70.3895 7.30633 70.5261C7.22857 70.7829 7.19627 71.0513 7.21089 71.3192V78.0002H7.01342L1.60608 71.3423V76.4106C1.586 76.5807 1.60523 76.7531 1.66229 76.9146C1.71935 77.0761 1.81271 77.2223 1.93519 77.342C2.14136 77.5013 2.39544 77.586 2.65595 77.5823H2.83038V77.7995H0V77.5823C0.329324 77.613 0.657917 77.5164 0.918228 77.3124C1.11505 77.0552 1.20681 76.7329 1.17494 76.4106V70.7828L1.00709 70.5721C0.887037 70.4045 0.734896 70.2625 0.559494 70.1542C0.383104 70.0774 0.192342 70.0393 0 70.0423L0 69.8251H2.83038Z" fill="white"/>
<path d="M17.7195 70.8214C17.3125 70.4271 16.8259 70.1241 16.2924 69.9328C15.7589 69.7416 15.1907 69.6664 14.6258 69.7123C14.0813 69.6782 13.5357 69.76 13.0251 69.9523C12.5145 70.1447 12.0506 70.4431 11.6638 70.828C11.268 71.2109 10.9562 71.672 10.7483 72.182C10.5403 72.6919 10.4408 73.2395 10.456 73.79C10.4352 74.7833 10.7636 75.7523 11.3841 76.5283C12.1674 77.498 13.2776 77.984 14.7147 77.9862C16.1518 77.9884 17.2588 77.4783 18.0355 76.4559C18.6273 75.6933 18.9419 74.7519 18.9274 73.7867C18.9408 73.236 18.8405 72.6884 18.6326 72.1781C18.4248 71.6679 18.114 71.206 17.7195 70.8214ZM16.5051 76.0445C16.3639 76.518 16.0814 76.9371 15.6955 77.2457C15.3986 77.4487 15.0445 77.5513 14.6851 77.5386C14.4144 77.5487 14.1454 77.4918 13.902 77.373C13.6585 77.2541 13.4482 77.077 13.2896 76.8574C12.8091 76.1991 12.5722 75.2118 12.5722 73.8427C12.5722 72.6974 12.7236 71.8186 13.0329 71.2098C13.1684 70.8785 13.3994 70.5952 13.6966 70.3959C13.9938 70.1966 14.3437 70.0903 14.7015 70.0908C15.0756 70.0858 15.4414 70.2012 15.7448 70.4199C16.0998 70.708 16.361 71.0953 16.4952 71.5323C16.7266 72.2988 16.8268 73.0988 16.7914 73.8986C16.8123 74.6247 16.7156 75.3493 16.5051 76.0445Z" fill="white"/>
<path d="M27.7444 74.2105C27.2669 73.8792 26.7235 73.6547 26.1515 73.5522C26.6977 73.4546 27.2066 73.2087 27.6226 72.8414C27.8889 72.5646 28.0375 72.1953 28.0373 71.8112C28.036 71.4422 27.921 71.0825 27.7082 70.7811C27.4877 70.4539 27.175 70.1996 26.8097 70.0505C26.183 69.8498 25.5248 69.7661 24.8679 69.8036H21.0634V70.0241C21.3154 70.0073 21.5683 70.0408 21.8072 70.1229C21.929 70.1775 22.028 70.2729 22.0869 70.3928C22.1602 70.6571 22.188 70.932 22.1692 71.2057V76.3826C22.1881 76.6552 22.1603 76.929 22.0869 77.1922C22.026 77.3107 21.9277 77.4056 21.8072 77.4621C21.5693 77.5486 21.3157 77.5834 21.0634 77.5641V77.7814H25.1115C26.2436 77.7814 27.1059 77.5444 27.6983 77.0705C27.9264 76.8954 28.1104 76.6694 28.2355 76.4105C28.3607 76.1517 28.4235 75.8671 28.4191 75.5796C28.4207 75.3146 28.3606 75.053 28.2435 74.8153C28.1264 74.5777 27.9555 74.3706 27.7444 74.2105ZM24.0254 70.2677C24.4487 70.2413 24.8729 70.3006 25.2727 70.4421C25.52 70.5472 25.7274 70.7281 25.8651 70.9588C26.0171 71.22 26.0913 71.5192 26.0791 71.8211C26.0908 72.1251 26.0166 72.4262 25.8651 72.69C25.7185 72.9237 25.5053 73.1083 25.253 73.2198C24.8617 73.369 24.4434 73.434 24.0254 73.4107V70.2677ZM26.135 76.5505C25.9993 76.8111 25.7868 77.0237 25.5261 77.1593C25.2583 77.2961 24.9613 77.3661 24.6606 77.3634C24.5733 77.3761 24.4844 77.3683 24.4007 77.3405C24.317 77.3127 24.241 77.2658 24.1787 77.2035C24.1164 77.1412 24.0694 77.0652 24.0417 76.9815C24.0139 76.8978 24.0061 76.8088 24.0188 76.7216V76.4287V73.8682C24.4773 73.846 24.9361 73.9039 25.3747 74.0393C25.6764 74.1587 25.9268 74.38 26.0823 74.6647C26.2567 74.9642 26.3466 75.3054 26.3423 75.652C26.345 75.9656 26.268 76.2747 26.1185 76.5505H26.135Z" fill="white"/>
<path d="M37.8712 74.9979L37.5717 77.7986H30.4891V77.5814H30.7557C30.9497 77.5905 31.1426 77.5485 31.3152 77.4597C31.4232 77.3949 31.5057 77.295 31.5489 77.1766C31.6087 76.9346 31.6309 76.6849 31.6147 76.4361V71.1868C31.6305 70.9304 31.6083 70.6731 31.5489 70.4232C31.4935 70.3081 31.4007 70.2153 31.2856 70.1599C31.1229 70.0733 30.9398 70.0323 30.7557 70.0414H30.4891V69.8242H34.7413V70.0414H34.4122C34.2182 70.0324 34.0253 70.0743 33.8527 70.1632C33.7436 70.2284 33.6591 70.328 33.6124 70.4462C33.5526 70.6882 33.5304 70.938 33.5466 71.1868V76.2716C33.5296 76.5337 33.554 76.797 33.619 77.0516C33.645 77.1099 33.683 77.1621 33.7307 77.2047C33.7784 77.2472 33.8345 77.2792 33.8955 77.2984C34.1292 77.3466 34.3681 77.3643 34.6064 77.3511H35.2646C35.6309 77.3649 35.9949 77.288 36.3243 77.1273C36.6246 76.9607 36.8755 76.7177 37.0517 76.423C37.3121 75.977 37.5103 75.4976 37.6408 74.9979H37.8712Z" fill="white"/>
<path d="M43.0251 70.2824V73.5308H43.1831C43.3916 73.5487 43.6012 73.5145 43.7931 73.4311C43.985 73.3478 44.1531 73.2181 44.2824 73.0536C44.5439 72.6295 44.6934 72.1459 44.7168 71.6482H44.9406V75.8247H44.7168C44.6938 75.4379 44.5966 75.0591 44.4305 74.709C44.3233 74.4635 44.1398 74.2592 43.9072 74.1265C43.6327 74.0111 43.3356 73.9594 43.0383 73.9751V76.2196C43.0235 76.4895 43.0411 76.7603 43.091 77.026C43.1324 77.1281 43.2065 77.2137 43.3016 77.2695C43.4555 77.3423 43.6255 77.374 43.7953 77.3616H44.2725C44.9102 77.4183 45.5461 77.2352 46.0561 76.8482C46.566 76.4611 46.9134 75.8979 47.0305 75.2685H47.2477L46.8889 77.8027H39.9841V77.5855H40.2474C40.4414 77.5945 40.6343 77.5525 40.8069 77.4637C40.9157 77.3997 40.9984 77.2995 41.0406 77.1806C41.1021 76.9389 41.1244 76.6889 41.1064 76.4401V71.1875C41.1139 70.9676 41.104 70.7475 41.0768 70.5292C41.0456 70.3973 40.9687 70.2807 40.8596 70.2001C40.6783 70.0815 40.4638 70.0238 40.2474 70.0356H39.9841V69.8184H46.6586V72.1748H46.4348C46.3749 71.7291 46.2102 71.3039 45.9543 70.9341C45.7249 70.6672 45.4213 70.4747 45.0821 70.3811C44.677 70.293 44.2621 70.2576 43.8479 70.2758L43.0251 70.2824Z" fill="white"/>
<path d="M54.8765 69.6406L54.939 72.2999H54.6988C54.6115 71.6841 54.3152 71.1171 53.8595 70.6938C53.4761 70.3112 52.9596 70.0918 52.418 70.0816C52.0693 70.0641 51.7273 70.182 51.4636 70.4108C51.3573 70.5016 51.2715 70.6141 51.2119 70.7406C51.1524 70.8671 51.1203 71.0048 51.118 71.1447C51.1144 71.3098 51.1566 71.4727 51.2398 71.6153C51.3854 71.8306 51.5708 72.016 51.7861 72.1616C52.1976 72.4163 52.624 72.646 53.0631 72.8495C53.9978 73.3102 54.6264 73.7414 54.9522 74.1495C55.27 74.547 55.4399 75.0426 55.4327 75.5515C55.4341 75.8776 55.3651 76.2002 55.2305 76.4973C55.0959 76.7943 54.8988 77.0588 54.6527 77.2728C54.113 77.76 53.4046 78.0174 52.678 77.9902C52.4389 77.9925 52.2004 77.9671 51.9671 77.9145C51.68 77.8423 51.3993 77.7465 51.1279 77.6282C50.9809 77.5597 50.8224 77.5195 50.6605 77.5097C50.5412 77.5142 50.4262 77.5556 50.3314 77.6282C50.206 77.718 50.1098 77.8428 50.055 77.987H49.8378V74.9723H50.055C50.1675 75.7077 50.5137 76.3873 51.0423 76.9108C51.4706 77.3243 52.04 77.5596 52.6352 77.569C53.0175 77.5901 53.3929 77.4614 53.6818 77.2102C53.8047 77.1082 53.9038 76.9805 53.972 76.8361C54.0403 76.6917 54.076 76.534 54.0767 76.3743C54.0759 76.1819 54.0236 75.9933 53.9254 75.828C53.8086 75.6328 53.6542 75.4628 53.4712 75.3277C53.1303 75.0872 52.7678 74.879 52.3884 74.7057C51.8395 74.4522 51.316 74.1469 50.8251 73.794C50.5261 73.5656 50.2764 73.279 50.0912 72.9515C49.9198 72.6379 49.8325 72.2853 49.8378 71.928C49.8339 71.6237 49.8941 71.3221 50.0143 71.0426C50.1345 70.7631 50.312 70.5119 50.5355 70.3054C50.772 70.0845 51.05 69.9126 51.3533 69.7996C51.6567 69.6866 51.9794 69.6348 52.3028 69.6472C52.556 69.6473 52.8081 69.6794 53.0532 69.7426C53.2807 69.8085 53.5012 69.8967 53.7114 70.0059C53.8844 70.1039 54.0741 70.1687 54.2709 70.1968C54.3153 70.198 54.3595 70.1901 54.4008 70.1737C54.4421 70.1573 54.4796 70.1327 54.5112 70.1014C54.6004 69.9647 54.6567 69.8093 54.6757 69.6472L54.8765 69.6406Z" fill="white"/>
<path d="M60.6459 70.2824V73.5308H60.8038C61.0123 73.5487 61.2219 73.5145 61.4138 73.4311C61.6057 73.3478 61.7738 73.2181 61.9031 73.0535C62.1649 72.6294 62.3155 72.146 62.3408 71.6482H62.5613V75.8247H62.3408C62.3115 75.4359 62.2088 75.0562 62.038 74.7057C61.9308 74.4603 61.7473 74.256 61.5147 74.1232C61.2402 74.0078 60.9432 73.9561 60.6459 73.9718V76.2163C60.631 76.4862 60.6487 76.757 60.6985 77.0227C60.74 77.1248 60.814 77.2105 60.9092 77.2662C61.063 77.339 61.2331 77.3707 61.4028 77.3584H61.8735C62.5103 77.3921 63.14 77.2101 63.6605 76.8416C64.1554 76.4402 64.5027 75.8856 64.6479 75.2652H64.8651L64.5064 77.7994H57.595V77.5822H57.8583C58.0522 77.5915 58.2452 77.5495 58.4178 77.4604C58.5267 77.3958 58.6103 77.2959 58.6547 77.1773C58.7127 76.9351 58.7338 76.6854 58.7173 76.4368V71.1875C58.7247 70.9676 58.7148 70.7475 58.6876 70.5292C58.6565 70.3973 58.5795 70.2807 58.4704 70.2001C58.2891 70.0815 58.0746 70.0238 57.8583 70.0356H57.595V69.8184H64.2694V72.1748H64.0456C63.9857 71.7291 63.821 71.3039 63.5651 70.9341C63.3358 70.6672 63.0321 70.4747 62.6929 70.3811C62.2879 70.2926 61.873 70.2572 61.4588 70.2758L60.6459 70.2824Z" fill="white"/>
<path d="M75.0841 77.3861C74.8837 77.1852 74.704 76.9647 74.5476 76.7279L72.6322 74.0292C73.0496 73.9407 73.4393 73.7521 73.7676 73.4795C73.9735 73.2976 74.137 73.0728 74.2468 72.8209C74.3565 72.5691 74.4098 72.2962 74.4028 72.0216C74.4113 71.5649 74.2613 71.1195 73.9783 70.7611C73.7017 70.4047 73.3191 70.1454 72.8856 70.0206C72.192 69.8615 71.4806 69.794 70.7694 69.8198H67.0603V70.0403C67.3145 70.023 67.5696 70.0565 67.8107 70.139C67.9307 70.194 68.0275 70.2895 68.0838 70.4089C68.1606 70.6726 68.1896 70.9479 68.1694 71.2218V76.3988C68.1897 76.6716 68.1607 76.9458 68.0838 77.2084C68.0257 77.3265 67.9295 77.4216 67.8107 77.4783C67.5705 77.5645 67.3148 77.5993 67.0603 77.5803V77.7975H71.1446V77.5803C70.8901 77.5984 70.6346 77.5637 70.3942 77.4783C70.2746 77.4253 70.1761 77.3338 70.1145 77.2183C70.0453 76.951 70.0198 76.6742 70.0388 76.3988V74.1608H70.5588L73.1325 77.7811H75.6436V77.5638C75.4434 77.5627 75.2483 77.5007 75.0841 77.3861ZM72.2307 73.0649C72.0896 73.3151 71.8646 73.5075 71.5955 73.6079C71.1982 73.7237 70.7846 73.7738 70.3712 73.756H70.0421V70.2542H70.6707C70.9147 70.2114 71.1654 70.2278 71.4018 70.3018C71.6383 70.3759 71.8535 70.5055 72.0295 70.6799C72.2055 70.8543 72.3371 71.0683 72.4133 71.304C72.4896 71.5398 72.5082 71.7903 72.4676 72.0347C72.4837 72.3933 72.4018 72.7494 72.2307 73.0649Z" fill="white"/>
<path d="M85.1352 69.8242V70.0414C84.829 70.0978 84.5533 70.2626 84.3585 70.5055C84.0651 70.9386 83.819 71.4021 83.6246 71.8878L80.8765 77.9994H80.6823L77.9474 71.6574C77.7706 71.1891 77.5502 70.7384 77.2891 70.3113C77.1173 70.1512 76.892 70.0609 76.6572 70.0579V69.8407H80.4815V70.0579H80.3532C80.1101 70.0364 79.8656 70.0807 79.6456 70.1862C79.6022 70.2139 79.567 70.2525 79.5433 70.2982C79.5196 70.3438 79.5083 70.3949 79.5106 70.4462C79.5141 70.5325 79.5296 70.6178 79.5567 70.6997C79.5896 70.7918 79.6949 71.0485 79.8858 71.4698L81.5841 75.4389L83.1605 71.9042C83.3481 71.4764 83.4666 71.19 83.5094 71.0452C83.5477 70.926 83.5687 70.8018 83.5719 70.6766C83.5748 70.5653 83.5426 70.4559 83.4798 70.364C83.4107 70.2685 83.3143 70.1962 83.2033 70.1566C82.9915 70.0848 82.7686 70.0514 82.5451 70.0579V69.8407L85.1352 69.8242Z" fill="white"/>
<path d="M89.9897 70.2824V73.5308H90.1477C90.3562 73.5487 90.5658 73.5145 90.7577 73.4311C90.9496 73.3478 91.1177 73.2181 91.247 73.0535C91.5085 72.6295 91.658 72.1459 91.6814 71.6482H91.9052V75.8247H91.6814C91.6547 75.4359 91.553 75.0559 91.3819 74.7057C91.2747 74.4603 91.0912 74.256 90.8586 74.1232C90.5841 74.0078 90.2871 73.9561 89.9897 73.9718V76.2163C89.9749 76.4862 89.9926 76.757 90.0424 77.0227C90.0839 77.1248 90.1579 77.2105 90.253 77.2662C90.4069 77.339 90.577 77.3707 90.7467 77.3584H91.2239C91.8616 77.415 92.4975 77.2319 93.0075 76.8449C93.5175 76.4578 93.8649 75.8946 93.9819 75.2652H94.1991L93.8404 77.7994H86.9487V77.5822H87.212C87.406 77.5912 87.5989 77.5492 87.7715 77.4604C87.8803 77.3964 87.963 77.2962 88.0052 77.1773C88.0667 76.9356 88.089 76.6856 88.071 76.4368V71.1875C88.0785 70.9676 88.0686 70.7475 88.0414 70.5292C88.0102 70.3973 87.9333 70.2807 87.8242 70.2001C87.6429 70.0815 87.4284 70.0238 87.212 70.0356H86.9487V69.8184H93.6232V72.1748H93.3994C93.3395 71.7291 93.1748 71.3039 92.9189 70.9341C92.6895 70.6672 92.3859 70.4747 92.0467 70.3811C91.6416 70.293 91.2267 70.2576 90.8125 70.2758L89.9897 70.2824Z" fill="white"/>
</svg>
