  <svg width="70" height="64" viewBox="0 0 70 64" fill="none" xmlns="http://www.w3.org/2000/svg">
                                <g clip-path="url(#clip0_917_67940)">
                                <path d="M47.8704 12.039C46.1935 -4.01301 23.2834 -4.01301 21.595 12.039H26.9726C27.2968 10.2119 28.2538 8.55729 29.6759 7.36526C31.098 6.17323 32.8944 5.51993 34.75 5.51993C36.6056 5.51993 38.402 6.17323 39.8241 7.36526C41.2462 8.55729 42.2033 10.2119 42.5274 12.039H47.8704Z" fill="#A0A0AB"/>
                                <path d="M62.3495 13.1147H7.13884C5.36788 13.1208 3.67119 13.8271 2.41892 15.0793C1.16666 16.3316 0.460442 18.0283 0.454346 19.7992L0.454346 57.3157C0.460442 59.0867 1.16666 60.7833 2.41892 62.0356C3.67119 63.2879 5.36788 63.9941 7.13884 64.0002H62.3495C64.1225 63.9971 65.8222 63.2923 67.0769 62.0397C68.3317 60.7871 69.0395 59.0886 69.0456 57.3157V19.7992C69.0395 18.0263 68.3317 16.3279 67.0769 15.0753C65.8222 13.8227 64.1225 13.1178 62.3495 13.1147ZM46.0778 37.7132H44.4009V40.2922H46.0315V42.5126H44.4009V49.9257H39.7749L34.6632 42.5126H30.5808V49.9257H25.0991V42.5126H23.4222V40.2922H25.0991V37.7132H23.4222V35.4928H25.0991V27.1892H29.8176L35.4959 35.4928H38.9654V27.1892H44.4009V35.4928H46.0315L46.0778 37.7132Z" fill="#A0A0AB"/>
                                <path d="M38.7803 40.2919H38.9654V37.7129H37.0225L38.7803 40.2919Z" fill="#A0A0AB"/>
                                <path d="M30.5808 37.7129V40.2919H33.1482L31.3672 37.7129H30.5808Z" fill="#A0A0AB"/>
                                </g>
                                <defs>
                                <clipPath id="clip0_917_67940">
                                <rect width="68.5913" height="64" fill="white" transform="translate(0.454346)"/>
                                </clipPath>
                                </defs>
                                </svg>