  <svg width="95" height="64" viewBox="0 0 95 64" fill="none" xmlns="http://www.w3.org/2000/svg">
                                <g clip-path="url(#clip0_917_67947)">
                                <path fill-rule="evenodd" clip-rule="evenodd" d="M55.6852 9.24989C61.567 8.67985 66.3476 8.84827 71.2318 11.9446C73.1492 13.1495 71.5686 15.1576 69.9362 14.1471C67.1481 12.3808 63.9087 11.4585 60.6083 11.4912C62.6223 12.5412 64.3686 14.0393 65.7127 15.8701C66.7621 17.5414 64.2747 18.7074 63.1217 16.8418C61.8261 14.5228 57.6544 12.424 55.6723 12.2296C54.8431 11.6596 54.0528 11.1543 53.1848 10.6879C54.0617 10.2884 54.8989 9.80691 55.6852 9.24989Z" fill="#A0A0AB"/>
                                <path fill-rule="evenodd" clip-rule="evenodd" d="M42.0431 35.8218L43.3387 37.7003H41.4731V35.8218H42.0431Z" fill="#A0A0AB"/>
                                <path fill-rule="evenodd" clip-rule="evenodd" d="M46.1759 35.8218H47.601V37.7003H47.4585L46.1759 35.8218Z" fill="#A0A0AB"/>
                                <path fill-rule="evenodd" clip-rule="evenodd" d="M66.2568 27.5043C62.2536 19.3423 56.2293 12.6832 50.9305 10.6622C55.5556 9.36661 57.6544 6.77552 58.056 1.95608C53.2107 4.8322 50.8269 5.01357 46.137 1.8913C41.9006 -1.02367 34.3864 -0.920031 36.6018 4.92288C37.5679 7.07603 39.1272 8.90948 41.0973 10.2087C34.5493 13.3872 29.1457 18.5148 25.6285 24.8873C26.2115 25.3666 26.4317 26.1828 25.9653 27.3877C25.3672 28.7188 24.4064 29.8547 23.1929 30.6654C32.2617 32.8678 40.618 53.4541 32.0285 61.4346C36.3622 63.1711 40.9957 64.0362 45.664 63.9806C50.3323 63.9251 54.9438 62.9498 59.235 61.1107C50.1661 54.931 56.6439 33.2694 66.2568 27.5043ZM52.7572 35.8217H51.5653V37.7002H52.7572V39.3196H51.5653V44.748H48.1969L44.4657 39.3196H41.473V44.748H37.4568V39.3196H36.239V37.7002H37.4568V35.8217H36.239V34.1893H37.4568V28.1261H40.903L45.0617 34.1893H47.6528V28.1261H51.656V34.1893H52.7572V35.8217Z" fill="#A0A0AB"/>
                                <path fill-rule="evenodd" clip-rule="evenodd" d="M11.1314 30.0694C7.50382 29.7196 4.53702 29.7974 1.47953 31.7407C0.28763 32.4921 1.27225 33.684 2.23095 33.101C3.96246 32.0074 5.97431 31.4403 8.02204 31.4686C6.78676 32.1188 5.71826 33.0455 4.89978 34.1763C4.252 35.2127 5.7937 35.9253 6.4933 34.7723C7.63797 33.2861 9.28839 32.2719 11.1314 31.9221C11.6366 31.5982 12.1419 31.2484 12.6601 30.9634C12.1128 30.7191 11.5919 30.4196 11.1054 30.0694H11.1314Z" fill="#D1D1D6"/>
                                <path fill-rule="evenodd" clip-rule="evenodd" d="M16.197 48.2979L16.8966 49.2954H15.899V48.2979H16.197Z" fill="#D1D1D6"/>
                                <path fill-rule="evenodd" clip-rule="evenodd" d="M18.4124 48.2979H19.1767V49.2954H19.1119L18.4124 48.2979Z" fill="#D1D1D6"/>
                                <path fill-rule="evenodd" clip-rule="evenodd" d="M20.1872 30.6653C21.4036 29.8579 22.3652 28.721 22.9597 27.3876C24.333 23.773 19.669 23.7082 17.052 25.4702C14.137 27.4135 12.6601 27.2969 9.65446 25.4702C9.63309 26.7477 10.0652 27.9914 10.874 28.9805C11.6828 29.9695 12.816 30.6399 14.0723 30.8726C8.02207 33.3082 0.404253 45.3439 2.06255 55.0864C4.18725 67.4329 32.2877 66.7463 33.1557 54.4904C33.7387 46.5617 30.1241 35.4329 20.1872 30.6653ZM21.9621 48.2977H21.3273V49.2953H21.9621V50.1763H21.3273V53.1171H19.5006L17.4925 50.2151H15.899V53.1171H13.7484V50.1763H13.0877V49.2953H13.7484V48.2977H13.0877V47.4167H13.7484V44.1649H15.601L17.7775 47.4167H19.1379V44.1649H21.2885V47.4167H21.9233L21.9621 48.2977Z" fill="#D1D1D6"/>
                                <path fill-rule="evenodd" clip-rule="evenodd" d="M82.8399 24.9907C87.0245 24.5761 90.4318 24.6927 93.9427 26.9081C95.2382 27.7632 94.1759 29.1883 93.0488 28.4757C91.0715 27.2286 88.7791 26.5724 86.4415 26.5842C87.8593 27.3388 89.0866 28.4066 90.0301 29.7065C90.7815 30.8854 89.0067 31.7275 88.2034 30.3931C86.8815 28.6859 84.9848 27.5166 82.8658 27.1024C82.2828 26.7397 81.6998 26.338 81.1038 26.0142C81.7264 25.7217 82.3242 25.3794 82.8917 24.9907H82.8399Z" fill="#D1D1D6"/>
                                <path fill-rule="evenodd" clip-rule="evenodd" d="M73.7451 46.9634L74.6261 48.246H73.3564V46.9634H73.7451Z" fill="#D1D1D6"/>
                                <path fill-rule="evenodd" clip-rule="evenodd" d="M76.5565 46.9634H77.5281V48.246H77.4245L76.5565 46.9634Z" fill="#D1D1D6"/>
                                <path fill-rule="evenodd" clip-rule="evenodd" d="M79.4455 25.9108C80.8882 25.6419 82.1892 24.8715 83.1186 23.7358C84.048 22.6002 84.5459 21.1724 84.5241 19.7051C81.0779 21.7521 79.3419 21.8816 76.0253 19.7051C73.0067 17.684 67.6561 17.7488 69.2237 21.9205C69.9172 23.4479 71.0261 24.7498 72.4237 25.6776C60.9969 31.1707 56.8771 43.9577 57.5119 53.0784C58.5225 67.1091 90.8334 67.9512 93.269 53.765C95.1864 42.5715 86.4415 28.6962 79.4455 25.9108ZM81.052 46.9245H80.2488V48.2201H81.052V49.3213H80.2488V53.0136H77.9297L75.3386 49.3213H73.3565V53.0136H70.6229V49.3472H69.7937V48.246H70.6229V46.9504H69.7937V45.8622H70.6229V41.7294H72.9678L75.7921 45.8622H77.5281V41.7294H80.2488V45.8622H81.052V46.9245Z" fill="#D1D1D6"/>
                                </g>
                                <defs>
                                <clipPath id="clip0_917_67947">
                                <rect width="93.6291" height="64" fill="white" transform="translate(0.935425)"/>
                                </clipPath>
                                </defs>
                                </svg>