 <svg width="77" height="64" viewBox="0 0 77 64" fill="none" xmlns="http://www.w3.org/2000/svg">
                                <path fill-rule="evenodd" clip-rule="evenodd" d="M34.0298 37.2238L33.1467 36.1299H28.2189L27.3057 37.2238C27.7272 38.2274 28.3093 39.512 28.7308 40.626C28.781 40.7866 28.8311 40.9572 28.8813 41.1078H32.4241L32.5746 40.626C33.0563 39.512 33.5983 38.2475 34.0298 37.2238Z" fill="#A0A0AB"/>
                                <path fill-rule="evenodd" clip-rule="evenodd" d="M39.2887 23.7954C41.4063 22.3903 41.7375 20.6942 41.3762 17.9644C40.4629 17.5028 40.3726 17.5028 39.7604 17.8942C40.5829 14.1955 40.7595 10.3825 40.2823 6.62366C39.3489 1.49523 34.923 -0.130611 30.1258 -0.00014233C25.3286 0.130327 21.284 0.622094 20.2804 5.88099C19.5667 9.85893 19.7277 13.9446 20.7521 17.854C20.2202 17.5028 20.0697 17.5228 19.1865 17.9644C18.8453 20.644 19.1865 22.3301 21.1937 23.7151C23.9536 37.1835 37.422 37.7656 39.359 23.7954H39.2887Z" fill="#A0A0AB"/>
                                <path d="M76.2917 48.0222V45.1619H74.154V34.2427H66.9882V45.1619H62.4319L55.0152 34.2427H48.843V45.1619H46.6451V48.0724H48.843V51.3843H46.6451V54.2947H48.843V63.9996H56.0188V54.2947H61.368L68.0621 63.9996H74.154V54.2947H76.2917V51.3843H74.154V48.0222H76.2917ZM56.0188 51.3843V48.0222H57.0224L59.4211 51.3843H56.0188ZM66.9882 51.3843H66.7373L64.4391 48.0222H66.9882V51.3843Z" fill="#D7D3D0"/>
                                <path fill-rule="evenodd" clip-rule="evenodd" d="M44.6379 43.1549V56.3021H46.8358V59.0922C45.2401 59.4836 43.6544 59.8248 42.0687 60.0958C38.3081 60.7607 34.4967 61.0965 30.6778 61.0994H30.186C26.5314 61.0667 22.8859 60.731 19.2868 60.0958C12.7154 58.8939 6.31066 56.9128 0.208252 54.1946C3.77106 37.1332 12.2515 41.3986 17.8115 37.5246L18.9456 36.521L19.066 36.4106C20.6618 44.6402 23.803 50.2805 27.6168 52.6691C28.1085 49.1665 28.6204 45.6438 29.0118 42.1111H32.3237C32.7351 45.6739 33.2269 49.1364 33.7187 52.6691C37.5324 50.2805 40.6737 44.6402 42.2694 36.4106L42.3898 36.521L43.5239 37.5246C44.5357 38.1908 45.6468 38.6921 46.8157 39.01V43.1549H44.6379Z" fill="#A0A0AB"/>
                                </svg>
                                