 <svg width="99" height="64" viewBox="0 0 99 64" fill="none" xmlns="http://www.w3.org/2000/svg">
                                <g clip-path="url(#clip0_917_67922)">
                                <path fill-rule="evenodd" clip-rule="evenodd" d="M8.96257 26.9648L5.58121 28.0838L8.96257 38.2279V26.9648Z" fill="#A0A0AB"/>
                                <path fill-rule="evenodd" clip-rule="evenodd" d="M18.0984 19.575L76.885 0L83.4018 19.575H80.918L75.6554 3.75024L75.348 2.85264L74.3643 3.17233L25.1194 19.575H18.0984Z" fill="#A0A0AB"/>
                                <path fill-rule="evenodd" clip-rule="evenodd" d="M73.9831 5.31201L31.1443 19.5752H40.8458C43.6419 18.6608 46.6567 18.6608 49.4529 19.5752H78.7785L73.9831 5.31201ZM64.9088 11.5583L70.8846 9.56638L72.4707 14.3372C69.1631 15.37 65.8064 14.1527 64.9088 11.5583Z" fill="#A0A0AB"/>
                                <path fill-rule="evenodd" clip-rule="evenodd" d="M8.96258 52.2331L0.0849609 25.5756L8.96258 22.6123V24.9608L3.99505 26.6085L3.01138 26.9405L3.31877 27.838L8.96258 44.8063V52.2331Z" fill="#A0A0AB"/>
                                <path fill-rule="evenodd" clip-rule="evenodd" d="M73.5651 64.0001H11.5939V21.9482H92.5253V41.5479H90.1768V25.1206V24.1738H89.144H14.9753H13.9424V25.1206V60.8278V61.7746H14.9753H73.5651V64.0001Z" fill="#A0A0AB"/>
                                <path fill-rule="evenodd" clip-rule="evenodd" d="M16.0696 26.0674V59.881H73.5651V41.5479H88.0988V26.0674H16.0696ZM20.3608 56.8071V51.7903C23.8283 51.8518 26.6194 54.0651 26.6563 56.8071H20.3608ZM20.3608 34.1335V29.2151H26.7301C26.5948 31.8956 23.7791 34.0966 20.2994 34.1335H20.3608ZM52.0596 56.8071C49.3211 56.807 46.6442 55.9942 44.3681 54.4715C42.092 52.9488 40.3191 50.7847 39.2739 48.2535C38.2288 45.7223 37.9585 42.9378 38.4972 40.2529C39.0359 37.5679 40.3595 35.1032 42.3002 33.1711C44.2409 31.239 46.7115 29.9265 49.3988 29.3997C52.0862 28.8729 54.8694 29.1556 57.3959 30.212C59.9225 31.2685 62.0786 33.051 63.5911 35.3339C65.1037 37.6168 65.9046 40.2972 65.8924 43.0357C65.873 46.6927 64.4074 50.1935 61.8157 52.7737C59.224 55.3539 55.7167 56.8039 52.0596 56.8071ZM83.8198 34.1581C80.3401 34.0966 77.5489 31.8833 77.5489 29.1414H83.8198V34.1581Z" fill="#A0A0AB"/>
                                <path fill-rule="evenodd" clip-rule="evenodd" d="M96.7428 64.0002H77.7211C75.4832 64.0002 75.4832 60.0901 77.7211 60.0901H96.7428C98.9683 60.0901 98.9683 64.0002 96.7428 64.0002ZM96.7428 58.6023H77.7211C75.4832 58.6023 75.4832 54.6923 77.7211 54.6923H96.7428C98.9683 54.6923 98.9683 58.6023 96.7428 58.6023ZM96.7428 53.1922H77.7211C75.4832 53.1922 75.4832 49.2944 77.7211 49.2944H96.7428C98.9683 49.2944 98.9683 53.1922 96.7428 53.1922ZM96.7428 47.7943H77.7211C75.4832 47.7943 75.4832 43.8965 77.7211 43.8965H96.7428C98.9683 43.8965 98.9683 47.7943 96.7428 47.7943Z" fill="#D7D3D0"/>
                                <path d="M59.1051 42.4454V41.056H58.0969V35.8794H54.6909V41.056H52.5268L48.9856 35.8794H46.0469V41.056H44.9895V42.4454H46.0469V44.0561H44.9895V45.4948H46.0469V50.1303H49.4652V45.4948H52.0104L55.2073 50.1303H58.1092V45.4948H59.1051V44.0561H58.0969V42.4454H59.1051ZM49.4529 44.0561V42.4454H49.9324L51.0513 44.0561H49.4529ZM54.6786 44.0561H54.5557L53.4613 42.4454H54.6909L54.6786 44.0561Z" fill="#A0A0AB"/>
                                </g>
                                <defs>
                                <clipPath id="clip0_917_67922">
                                <rect width="98.3301" height="64" fill="white" transform="translate(0.0849609)"/>
                                </clipPath>
                                </defs>
                                </svg>
                          